<svg xmlns:xlink="http://www.w3.org/1999/xlink" width="55" height="80" viewBox="0 0 55 80" fill="none" xmlns="http://www.w3.org/2000/svg" role="img" class="StyledstAPTLogo-sc-1dr6tbs-5 ebdkkl"><path d="M54.0287 23.8796C53.8086 22.0034 53.4312 20.1665 52.8652 18.3609C52.7315 17.937 52.5664 17.8036 52.1261 17.8114C47.2989 17.8271 42.4716 17.8114 37.6365 17.8271C36.9132 17.8271 36.3157 17.5916 35.844 17.0343C35.2701 16.367 34.6883 15.7154 34.0986 15.0639C33.4304 14.326 32.4712 14.3103 31.7872 15.0325C31.2998 15.5506 30.8202 16.0765 30.3642 16.626C29.6724 17.4739 28.7918 17.8271 27.7069 17.8193C23.5951 17.8036 19.4754 17.8193 15.3636 17.8193C11.2518 17.8193 6.96704 17.8193 2.76875 17.8114C2.42283 17.8114 2.28131 17.9135 2.1791 18.2353C1.5816 20.1037 1.18848 22.0034 0.960486 23.9502C0.913314 24.3427 1.0234 24.4055 1.39291 24.4055C9.27846 24.3977 17.1561 24.3977 25.0417 24.4055C25.6549 24.4055 26.1266 24.2014 26.5354 23.7618C27.2037 23.0475 27.872 22.3409 28.5638 21.6423C29.3029 20.8887 30.2463 20.9122 30.9617 21.6894C31.5514 22.3409 32.141 22.9925 32.7071 23.6598C33.1631 24.1857 33.7213 24.4134 34.4131 24.4134C40.8049 24.4134 47.1888 24.4055 53.5806 24.4134C54.0287 24.4134 54.0838 24.2721 54.0366 23.8874L54.0287 23.8796Z" fill="url(&quot;#paint0_linear_1415_6458&quot;)"></path><path d="M28.3203 31.5647C27.4555 31.5647 26.7872 31.2978 26.2369 30.6306C25.7494 30.0261 25.2069 29.4609 24.688 28.88C23.9254 28.0322 22.9741 28.0322 22.2037 28.88C21.7634 29.3746 21.3153 29.8613 20.8907 30.3715C20.1989 31.2115 19.3183 31.5647 18.2334 31.5647C12.7379 31.549 7.24236 31.5647 1.74685 31.549C1.34589 31.549 1.29084 31.6432 1.36946 32.0122C1.80973 34.0375 2.4387 36.0001 3.31924 37.8841C3.41358 38.0803 3.48434 38.2373 3.76738 38.2295C7.69836 38.2138 11.6372 38.2295 15.5682 38.2216C16.0714 38.2216 16.488 38.0254 16.8418 37.6564C17.5337 36.9185 18.2412 36.1963 18.9488 35.4741C19.7429 34.6734 20.6549 34.7048 21.4096 35.5526C21.9206 36.1178 22.4474 36.6752 22.9191 37.2718C23.4852 37.9783 24.1849 38.2452 25.089 38.2373C33.5878 38.2216 42.0866 38.2138 50.5854 38.2452C51.3165 38.2452 51.6467 38.0332 51.914 37.3738C52.6688 35.4977 53.3213 33.5979 53.6751 31.5569H53.054C44.8068 31.5569 36.5518 31.5569 28.3046 31.5647H28.3203Z" fill="url(&quot;#paint1_linear_1415_6458&quot;)"></path><path d="M34.4052 10.6598C35.0892 10.6598 35.616 10.4243 36.0641 9.92971C36.7009 9.23105 37.3535 8.55594 38.0218 7.88083C38.7529 7.13507 39.7199 7.16647 40.4196 7.94363C41.0329 8.61874 41.6304 9.3017 42.2358 9.98466C42.6289 10.4321 43.132 10.6519 43.7295 10.6598C45.3884 10.6598 47.0473 10.6598 48.769 10.6598C44.445 4.56808 35.5924 -1.01336 24.5857 0.156311C20.9377 0.540967 17.5099 1.65568 14.3179 3.47691C11.126 5.29814 8.42147 7.66888 6.15723 10.6676C15.6623 10.6676 25.0338 10.6676 34.4131 10.6676L34.4052 10.6598Z" fill="url(&quot;#paint2_linear_1415_6458&quot;)"></path><path d="M37.1489 44.7762C33.9333 44.7762 30.7099 44.7762 27.4944 44.7762C24.2789 44.7762 21.0555 44.7762 17.8399 44.7762C16.9987 44.7762 16.3304 44.5328 15.7958 43.8734C15.269 43.2297 14.7108 42.6174 14.1526 42.013C13.4608 41.2593 12.4938 41.2672 11.8098 42.0208C11.4088 42.4604 11 42.8922 10.6226 43.3632C9.96223 44.1874 9.17602 44.7527 8.05176 44.7762C8.27975 44.7762 9.3254 46.0872 9.57698 46.3227C11.8255 48.3951 14.5536 49.7532 17.3446 50.9542C19.7661 51.9983 23.587 52.8147 24.554 55.5937C25.3245 57.8153 25.0336 60.3037 23.7128 62.2427C22.5571 63.9462 20.9218 65.2729 19.8919 67.0627C18.2723 69.8809 18.4767 73.4527 20.5208 75.9961C22.1483 78.0215 24.8213 79.042 27.5023 79.042C30.1753 79.042 32.8563 78.0293 34.4837 75.9961C36.5199 73.4527 36.7243 69.8809 35.1126 67.0627C34.0827 65.2729 32.4396 63.9384 31.2917 62.2427C29.9709 60.2959 29.68 57.8153 30.4505 55.5937C31.4175 52.8147 35.2384 51.9983 37.6599 50.9542C40.443 49.7532 43.179 48.403 45.4275 46.3227C45.6791 46.0872 46.9528 44.7762 46.9528 44.7762C45.8364 44.7527 38.0059 44.7762 37.1646 44.7762H37.1489Z" fill="url(&quot;#paint3_linear_1415_6458&quot;)"></path><defs><linearGradient id="paint0_linear_1415_6458" x1="12.9814" y1="36.2671" x2="41.9405" y2="7.26431" gradientUnits="userSpaceOnUse"><stop stop-color="#0000FF"></stop><stop offset="0.1" stop-color="#0D05FF"></stop><stop offset="0.29" stop-color="#2F12FF"></stop><stop offset="0.55" stop-color="#6728FF"></stop><stop offset="0.86" stop-color="#B346FF"></stop><stop offset="1" stop-color="#D855FF"></stop></linearGradient><linearGradient id="paint1_linear_1415_6458" x1="13.3039" y1="47.9401" x2="41.6585" y2="19.5427" gradientUnits="userSpaceOnUse"><stop stop-color="#0000FF"></stop><stop offset="0.1" stop-color="#0D05FF"></stop><stop offset="0.29" stop-color="#2F12FF"></stop><stop offset="0.55" stop-color="#6728FF"></stop><stop offset="0.86" stop-color="#B346FF"></stop><stop offset="1" stop-color="#D855FF"></stop></linearGradient><linearGradient id="paint2_linear_1415_6458" x1="16.7158" y1="21.1946" x2="38.2094" y2="-0.339231" gradientUnits="userSpaceOnUse"><stop stop-color="#0000FF"></stop><stop offset="0.1" stop-color="#0D05FF"></stop><stop offset="0.29" stop-color="#2F12FF"></stop><stop offset="0.55" stop-color="#6728FF"></stop><stop offset="0.86" stop-color="#B346FF"></stop><stop offset="1" stop-color="#D855FF"></stop></linearGradient><linearGradient id="paint3_linear_1415_6458" x1="13.0598" y1="68.6092" x2="41.8933" y2="39.7401" gradientUnits="userSpaceOnUse"><stop stop-color="#0000FF"></stop><stop offset="0.1" stop-color="#0D05FF"></stop><stop offset="0.29" stop-color="#2F12FF"></stop><stop offset="0.55" stop-color="#6728FF"></stop><stop offset="0.86" stop-color="#B346FF"></stop><stop offset="1" stop-color="#D855FF"></stop></linearGradient><linearGradient id="paint0_linear_1415_6458" x1="12.9814" y1="36.2671" x2="41.9405" y2="7.26431" gradientUnits="userSpaceOnUse"><stop stop-color="#0000FF"></stop><stop offset="0.1" stop-color="#0D05FF"></stop><stop offset="0.29" stop-color="#2F12FF"></stop><stop offset="0.55" stop-color="#6728FF"></stop><stop offset="0.86" stop-color="#B346FF"></stop><stop offset="1" stop-color="#D855FF"></stop></linearGradient><linearGradient id="paint1_linear_1415_6458" x1="13.3039" y1="47.9401" x2="41.6585" y2="19.5427" gradientUnits="userSpaceOnUse"><stop stop-color="#0000FF"></stop><stop offset="0.1" stop-color="#0D05FF"></stop><stop offset="0.29" stop-color="#2F12FF"></stop><stop offset="0.55" stop-color="#6728FF"></stop><stop offset="0.86" stop-color="#B346FF"></stop><stop offset="1" stop-color="#D855FF"></stop></linearGradient><linearGradient id="paint2_linear_1415_6458" x1="16.7158" y1="21.1946" x2="38.2094" y2="-0.339231" gradientUnits="userSpaceOnUse"><stop stop-color="#0000FF"></stop><stop offset="0.1" stop-color="#0D05FF"></stop><stop offset="0.29" stop-color="#2F12FF"></stop><stop offset="0.55" stop-color="#6728FF"></stop><stop offset="0.86" stop-color="#B346FF"></stop><stop offset="1" stop-color="#D855FF"></stop></linearGradient><linearGradient id="paint3_linear_1415_6458" x1="13.0598" y1="68.6092" x2="41.8933" y2="39.7401" gradientUnits="userSpaceOnUse"><stop stop-color="#0000FF"></stop><stop offset="0.1" stop-color="#0D05FF"></stop><stop offset="0.29" stop-color="#2F12FF"></stop><stop offset="0.55" stop-color="#6728FF"></stop><stop offset="0.86" stop-color="#B346FF"></stop><stop offset="1" stop-color="#D855FF"></stop></linearGradient></defs></svg>